<svg width="16" height="16" viewBox="0 0 16 16" fill="none" xmlns="http://www.w3.org/2000/svg">
<path fill-rule="evenodd" clip-rule="evenodd" d="M11.1586 1.05991L14.9402 4.84154L4.72716 15.0546L0.735543 15.8529C0.385683 15.9229 0.0772226 15.6144 0.147195 15.2646L0.945517 11.273L11.1586 1.05991ZM2.17717 11.9321L11.1586 2.95072L13.0494 4.84154L4.06799 13.8229L1.70447 14.2956L2.17717 11.9321Z" fill="#CB11AB"/>
<path fill-rule="evenodd" clip-rule="evenodd" d="M13.9949 5.78715L10.2133 2.00552L11.6314 0.587402C12.4146 -0.195801 13.6844 -0.195801 14.4676 0.587402L15.413 1.53281C16.1962 2.31601 16.1962 3.58584 15.413 4.36904L13.9949 5.78715ZM14.4676 3.42363C14.7287 3.16256 14.7287 2.73929 14.4676 2.47822L13.5222 1.53281C13.2611 1.27174 12.8379 1.27174 12.5768 1.53281L12.1041 2.00552L13.9949 3.89634L14.4676 3.42363Z" fill="#CB11AB"/>
</svg>
